<svg id="Capa_1" enable-background="new 0 0 512 512" height="512" viewBox="0 0 512 512" width="512" xmlns="http://www.w3.org/2000/svg"><g><g><path d="m205 512h-60c-8.284 0-15-6.716-15-15v-97h90v97c0 8.284-6.716 15-15 15z" fill="#1766a0"/></g><g><path d="m225 430h-100c-24.813 0-45-20.187-45-45v-30c0-8.284 6.716-15 15-15h160c8.284 0 15 6.716 15 15v30c0 24.813-20.187 45-45 45z" fill="#001737"/></g><g><path d="m392 320h-57c-8.284 0-15-6.716-15-15v-140c0-8.284 6.716-15 15-15h57c8.284 0 15 6.716 15 15v140c0 8.284-6.716 15-15 15z" fill="#08475e"/></g><g><path d="m320 235v70c0 8.284 6.716 15 15 15h57c8.284 0 15-6.716 15-15l2-70z" fill="#001737"/></g><g><path d="m305 370h-260c-24.813 0-45-20.187-45-45v-180c0-24.813 20.187-45 45-45h260c24.813 0 45 20.187 45 45v180c0 24.813-20.187 45-45 45z" fill="#1766a0"/></g><g><path d="m0 235v90c0 24.813 20.187 45 45 45h260c24.813 0 45-20.187 45-45v-90z" fill="#08475e"/></g><g><path d="m391.521 320 98.876 48.469c2.089 1.024 4.348 1.531 6.602 1.531 2.763 0 5.518-.763 7.938-2.271 4.393-2.74 7.063-7.551 7.063-12.729v-240c0-5.178-2.67-9.989-7.063-12.729-4.392-2.738-9.888-3.02-14.539-.74l-98.877 48.469z" fill="#1766a0"/></g><g><path d="m391.521 235v85l98.876 48.469c2.089 1.024 4.348 1.531 6.602 1.531 2.763 0 5.518-.763 7.938-2.271 4.393-2.74 7.063-7.551 7.063-12.729v-120z" fill="#08475e"/></g><g><g><path d="m240 130c-35.841 0-65-29.159-65-65s29.159-65 65-65 65 29.159 65 65-29.159 65-65 65z" fill="#08475e"/><circle cx="240" cy="65" fill="#1766a0" r="35"/></g><g><path d="m110 130c-35.841 0-65-29.159-65-65s29.159-65 65-65 65 29.159 65 65-29.159 65-65 65z" fill="#08475e"/><circle cx="110" cy="65" fill="#1766a0" r="35"/></g></g><g><path d="m295 330h-120c-8.284 0-15-6.716-15-15v-40c0-8.284 6.716-15 15-15h120c8.284 0 15 6.716 15 15v40c0 8.284-6.716 15-15 15z" fill="#ffb454"/></g><g><path d="m275 190h-60c-8.284 0-15-6.716-15-15s6.716-15 15-15h60c8.284 0 15 6.716 15 15s-6.716 15-15 15z" fill="#08475e"/></g><g><circle cx="75" cy="175" fill="#ff6326" r="15"/></g><g><circle cx="135" cy="175" fill="#ff6326" r="15"/></g></g></svg>